<svg width="106" height="29" viewBox="0 0 106 29" fill="none" xmlns="http://www.w3.org/2000/svg">
<path d="M5.592 13.76H13.656V16.88H5.592V13.76ZM5.88 23H1.992V6.2H14.688V9.32H5.88V23ZM24.7841 23.288C22.4001 23.288 20.5361 22.624 19.1921 21.296C17.8481 19.968 17.1761 18.072 17.1761 15.608V6.2H21.0641V15.464C21.0641 17.064 21.3921 18.216 22.0481 18.92C22.7041 19.624 23.6241 19.976 24.8081 19.976C25.9921 19.976 26.9121 19.624 27.5681 18.92C28.2241 18.216 28.5521 17.064 28.5521 15.464V6.2H32.3921V15.608C32.3921 18.072 31.7201 19.968 30.3761 21.296C29.0321 22.624 27.1681 23.288 24.7841 23.288ZM36.2342 23V6.2H43.5062C45.0102 6.2 46.3062 6.448 47.3942 6.944C48.4822 7.424 49.3222 8.12 49.9142 9.032C50.5062 9.944 50.8022 11.032 50.8022 12.296C50.8022 13.544 50.5062 14.624 49.9142 15.536C49.3222 16.432 48.4822 17.12 47.3942 17.6C46.3062 18.08 45.0102 18.32 43.5062 18.32H38.3942L40.1222 16.616V23H36.2342ZM46.9142 23L42.7142 16.904H46.8662L51.1142 23H46.9142ZM40.1222 17.048L38.3942 15.224H43.2902C44.4902 15.224 45.3862 14.968 45.9782 14.456C46.5702 13.928 46.8662 13.208 46.8662 12.296C46.8662 11.368 46.5702 10.648 45.9782 10.136C45.3862 9.624 44.4902 9.368 43.2902 9.368H38.3942L40.1222 7.52V17.048ZM53.8826 23V6.2H57.0986L67.0106 18.296H65.4506V6.2H69.2906V23H66.0986L56.1626 10.904H57.7226V23H53.8826ZM73.2654 23V6.2H77.1534V23H73.2654ZM81.1404 23V6.2H88.7724C90.5964 6.2 92.2044 6.552 93.5964 7.256C94.9884 7.944 96.0764 8.912 96.8604 10.16C97.6444 11.408 98.0364 12.888 98.0364 14.6C98.0364 16.296 97.6444 17.776 96.8604 19.04C96.0764 20.288 94.9884 21.264 93.5964 21.968C92.2044 22.656 90.5964 23 88.7724 23H81.1404ZM85.0284 19.808H88.5804C89.7004 19.808 90.6684 19.6 91.4844 19.184C92.3164 18.752 92.9564 18.144 93.4044 17.36C93.8684 16.576 94.1004 15.656 94.1004 14.6C94.1004 13.528 93.8684 12.608 93.4044 11.84C92.9564 11.056 92.3164 10.456 91.4844 10.04C90.6684 9.608 89.7004 9.392 88.5804 9.392H85.0284V19.808Z" fill="white"/>
<circle cx="102.5" cy="19.5" r="3.5" fill="#079911"/>
</svg>
